<svg xmlns="http://www.w3.org/2000/svg" xmlns:xlink="http://www.w3.org/1999/xlink" viewBox="0 0 272.33 272.33"><defs><style>.cls-1{isolation:isolate;}.cls-2{fill:url(#linear-gradient);}.cls-3{opacity:0.5;}.cls-3,.cls-8{mix-blend-mode:multiply;}.cls-4{fill:url(#linear-gradient-2);}.cls-5,.cls-6{fill:none;}.cls-6{mix-blend-mode:soft-light;}.cls-7{fill:#fff;}.cls-8{fill:#b2b3b6;}</style><linearGradient id="linear-gradient" x1="-82.52" y1="337.43" x2="362.71" y2="-72.34" gradientUnits="userSpaceOnUse"><stop offset="0" stop-color="#ef569f"/><stop offset="0.26" stop-color="#7687c1"/><stop offset="0.45" stop-color="#21aad9"/><stop offset="0.54" stop-color="#00b7e2"/><stop offset="1" stop-color="#fdd800"/></linearGradient><linearGradient id="linear-gradient-2" x1="136.17" y1="265.52" x2="136.17" y2="6.81" gradientUnits="userSpaceOnUse"><stop offset="0" stop-color="#dcdcdc"/><stop offset="0.01" stop-color="#d1d1d1"/><stop offset="0.02" stop-color="#cacaca"/><stop offset="0.06" stop-color="#c8c8c8"/><stop offset="0.1" stop-color="#cecece"/><stop offset="0.15" stop-color="#dcdcdc"/><stop offset="0.85" stop-color="#e6e6e6"/><stop offset="1" stop-color="#fff"/></linearGradient></defs><title>mKey Logo Coloured</title><g class="cls-1"><g id="TEMPLATE"><rect id="basic_shape" class="cls-2" x="6.81" y="6.81" width="258.72" height="258.72" rx="45.39" ry="45.39"/><g class="cls-3"><path id="border" class="cls-4" d="M265.52,53.64A46.84,46.84,0,0,0,218.69,6.81h-165A46.84,46.84,0,0,0,6.81,53.64v165a46.84,46.84,0,0,0,46.84,46.84h165a46.84,46.84,0,0,0,46.84-46.84Zm-3.63,166.49a41.81,41.81,0,0,1-41.76,41.76H52.2a41.81,41.81,0,0,1-41.76-41.76V52.2A41.8,41.8,0,0,1,52.2,10.44H220.14A41.81,41.81,0,0,1,261.89,52.2Z"/></g><rect id="mask" class="cls-5" width="272.33" height="272.33" rx="47.78" ry="47.78"/><rect id="mask-2" data-name="mask" class="cls-6" width="272.33" height="272.33" rx="47.78" ry="47.78"/><path class="cls-7" d="M161.87,56.79a35.25,35.25,0,0,0-25.71,11.12,35.26,35.26,0,0,0-41.82-7.22,9.64,9.64,0,0,0-19.24.84V113a9.64,9.64,0,0,0,19.29,0V92.14a16.07,16.07,0,0,1,32.13-.24c0,.08,0,.16,0,.24V113a9.64,9.64,0,0,0,9.64,9.64h0a9.64,9.64,0,0,0,9.64-9.64V92.14c0-.08,0-.16,0-.24a16.07,16.07,0,0,1,32.13.24V113a9.64,9.64,0,1,0,19.28,0V92.14A35.4,35.4,0,0,0,161.87,56.79Z"/><path class="cls-8" d="M99.9,58.4a35,35,0,0,0-5.51,2.27V92.14A16,16,0,0,1,99.9,80Z"/><path class="cls-8" d="M136.2,67.93l0,0a35.21,35.21,0,0,1,9.66,24.25h0a16,16,0,0,1,3.9-10.48A35.46,35.46,0,0,0,139,65.31,35.86,35.86,0,0,0,136.2,67.93Z"/><path class="cls-7" d="M91.33,169V191.7q0,.6,1.35.6,1.2,0,1.42-.3,4.57-7.57,7.42-13.34a1.06,1.06,0,0,1,1-.68h12.89a.65.65,0,0,1,.56.26c.12.18.14.31,0,.41q-4.5,7.64-10.57,17.16a1.64,1.64,0,0,0-.38.9,2,2,0,0,0,.3,1q1.2,1.95,5.7,9.89t5.4,9.67c.1.15.06.33-.11.52a1,1,0,0,1-.79.3H102.72a1.35,1.35,0,0,1-1.12-.6q-6-12.89-7.49-15.66a1.51,1.51,0,0,0-1.5-.75c-.85,0-1.27.22-1.27.67v15.59a.66.66,0,0,1-.75.75H78.89a.66.66,0,0,1-.75-.75V169a.66.66,0,0,1,.75-.75H90.58A.66.66,0,0,1,91.33,169Zm61.06,47.64q-4.8,2.17-13.79,2.17-10.72,0-15.59-4.91t-4.87-15.7q0-11.09,5-16t14.28-4.95q8.69,0,12.48,4.08t3.78,13.15a38.13,38.13,0,0,1-.37,5.4,3,3,0,0,1-.49,1.5,1.63,1.63,0,0,1-1.24.37H131.85c-.3,0-.45.13-.45.37q0,3.9,2.06,5.43t6.48,1.54a52.52,52.52,0,0,0,11.17-1.35q.75-.3.9.3l.83,7.94A.64.64,0,0,1,152.39,216.66ZM131,194.1a.4.4,0,0,0,.45.45H141.6q.82,0,.82-1.65a10.64,10.64,0,0,0-1-5.25q-1-1.72-4.31-1.72-3.6,0-4.83,2.1A12.11,12.11,0,0,0,131,194.1Zm66.2,10.51c0,.05,0,.52,0,1.48,0,2-.4,6.37-3.59,9.56s-9,4.79-17.92,4.79a59.33,59.33,0,0,1-13.6-1.61,1.41,1.41,0,0,1-1.41-1.41v-8a1.41,1.41,0,0,1,1.41-1.41s12.25,1.6,13.15,1.6c5.28,0,8.5-1,9.11-1.57a3.85,3.85,0,0,0,1.11-2.67v-2.19a1.41,1.41,0,0,0-1.41-1.41h-11c-4.55,0-8.69-1.47-10.14-3.15-2-2.36-2.22-6.38-2.22-10.35v-9.68a1.41,1.41,0,0,1,1.41-1.41h7.22a1.41,1.41,0,0,1,1.41,1.41v12.08a3,3,0,0,0,.62,2,2.12,2.12,0,0,0,1.69.72h11a1.41,1.41,0,0,0,1.41-1.41v-14.1a1.41,1.41,0,0,1,1.41-1.41h8.93a1.41,1.41,0,0,1,1.41,1.41Z"/><path class="cls-7" d="M135.73,168c-24.66,0-42.48-6.26-53-18.6q-.92-1.09-1.72-2.17a11.87,11.87,0,0,1,9.6-18.86h0v-.15c0,.95,1.38,23.26,45.09,23.26s45.06-22.31,45.09-23.26v.15h0a11.87,11.87,0,0,1,9.6,18.86q-.8,1.08-1.72,2.17C178.22,161.76,160.39,168,135.73,168Z"/></g></g></svg>